<svg width="17" height="16" viewBox="0 0 17 16" fill="none" xmlns="http://www.w3.org/2000/svg">
<g id="arrow_outward">
<mask id="mask0_411_7548" style="mask-type:alpha" maskUnits="userSpaceOnUse" x="0" y="0" width="17" height="16">
<rect id="Bounding box" x="0.5" width="16" height="16" fill="#D9D9D9"/>
</mask>
<g mask="url(#mask0_411_7548)">
<path id="arrow_outward_2" d="M11.1667 5.60016L5.23337 11.5335C5.11114 11.6557 4.95559 11.7168 4.7667 11.7168C4.57781 11.7168 4.42225 11.6557 4.30003 11.5335C4.17781 11.4113 4.1167 11.2557 4.1167 11.0668C4.1167 10.8779 4.17781 10.7224 4.30003 10.6002L10.2334 4.66683H5.1667C4.97781 4.66683 4.81948 4.60294 4.6917 4.47516C4.56392 4.34739 4.50003 4.18905 4.50003 4.00016C4.50003 3.81127 4.56392 3.65294 4.6917 3.52516C4.81948 3.39738 4.97781 3.3335 5.1667 3.3335H11.8334C12.0223 3.3335 12.1806 3.39738 12.3084 3.52516C12.4361 3.65294 12.5 3.81127 12.5 4.00016V10.6668C12.5 10.8557 12.4361 11.0141 12.3084 11.1418C12.1806 11.2696 12.0223 11.3335 11.8334 11.3335C11.6445 11.3335 11.4861 11.2696 11.3584 11.1418C11.2306 11.0141 11.1667 10.8557 11.1667 10.6668V5.60016Z" fill="white"/>
</g>
</g>
</svg>
