<svg width="38" height="38" viewBox="0 0 38 38" fill="none" xmlns="http://www.w3.org/2000/svg">
<g id="Token Logos">
<path id="Circle" d="M38 19C38 29.4934 29.4934 38 19 38C8.50659 38 0 29.4934 0 19C0 8.50659 8.50659 0 19 0C29.4934 0 38 8.50659 38 19Z" fill="white"/>
<path id="Circle (Stroke)" fill-rule="evenodd" clip-rule="evenodd" d="M19 37.4062C29.1655 37.4062 37.4062 29.1655 37.4062 19C37.4062 8.83451 29.1655 0.59375 19 0.59375C8.83451 0.59375 0.59375 8.83451 0.59375 19C0.59375 29.1655 8.83451 37.4062 19 37.4062ZM19 38C29.4934 38 38 29.4934 38 19C38 8.50659 29.4934 0 19 0C8.50659 0 0 8.50659 0 19C0 29.4934 8.50659 38 19 38Z" fill="#DCDEE1"/>
<path id="Shape" fill-rule="evenodd" clip-rule="evenodd" d="M19.8158 12.2719C21.1062 12.2719 22.1522 11.2259 22.1522 9.93552C22.1522 8.64516 21.1062 7.59912 19.8158 7.59912C18.5255 7.59912 17.4794 8.64516 17.4794 9.93552C17.4794 11.2259 18.5255 12.2719 19.8158 12.2719ZM30.3694 18.9989C30.3694 21.6241 28.2412 23.7523 25.616 23.7523C22.9908 23.7523 20.8627 21.6241 20.8627 18.9989C20.8627 16.3737 22.9908 14.2456 25.616 14.2456C28.2412 14.2456 30.3694 16.3737 30.3694 18.9989ZM22.1523 28.0619C22.1523 29.3523 21.1063 30.3983 19.8159 30.3983C18.5256 30.3983 17.4795 29.3523 17.4795 28.0619C17.4795 26.7715 18.5256 25.7255 19.8159 25.7255C21.1063 25.7255 22.1523 26.7715 22.1523 28.0619ZM7.8516 12.4333C7.1668 14.246 8.13358 16.3004 9.9463 16.9852C11.1548 17.4283 12.4438 17.1866 13.3703 16.4213C14.2163 15.817 15.3039 15.6156 16.3513 16.0184C17.0361 16.2601 17.5597 16.7033 17.9223 17.2672L17.9626 17.3478C18.1237 17.5895 18.3654 17.8312 18.6876 17.9117C19.4127 18.1937 20.2587 17.7909 20.5004 17.0658C20.7823 16.3407 20.3795 15.4948 19.6544 15.2531C19.3322 15.1322 19.0099 15.1322 18.6876 15.2531C18.0431 15.4545 17.318 15.4545 16.6332 15.2128C15.6262 14.8502 14.9414 14.0446 14.6594 13.1181L14.6191 13.0375C14.6191 12.9972 14.6191 12.957 14.5788 12.957V12.8764C14.2968 11.7485 13.5315 10.7817 12.3633 10.3789C10.5505 9.65378 8.49613 10.5803 7.8516 12.4333ZM9.9463 21.013C8.13358 21.6978 7.1668 23.7522 7.8516 25.565C8.53641 27.418 10.5505 28.3445 12.3633 27.6194C13.5315 27.2165 14.2968 26.2498 14.5788 25.1218V25.0413C14.6191 25.0413 14.6191 25.001 14.6191 24.9607L14.6594 24.8801C14.9414 23.9536 15.6262 23.148 16.6332 22.7854C17.318 22.5438 18.0431 22.5438 18.6876 22.7452C19.0099 22.866 19.3322 22.866 19.6544 22.7452C20.3795 22.5035 20.7823 21.6575 20.5004 20.9324C20.2587 20.2074 19.4127 19.8045 18.6876 20.0865C18.3654 20.1671 18.1237 20.4088 17.9626 20.6505L17.9223 20.731C17.5597 21.295 17.0361 21.7381 16.3513 21.9798C15.3039 22.3826 14.2163 22.1812 13.3703 21.577C12.4438 20.8116 11.1548 20.5699 9.9463 21.013Z" fill="#266CD3"/>
</g>
</svg>
